<svg viewBox="0 0 90 100" fill="none" xmlns="http://www.w3.org/2000/svg">
<g filter="url(#filter0_d_8_4768)">
<path d="M78.4857 88.2305L4 89.0684L17.1998 16.127L69.6855 19.1256L78.4857 88.2305Z" fill="#8BC6FF"/>
<path d="M85.3998 92H15.8379L16.2287 88.9313L78.4857 88.2308L69.9912 21.5261L78.4857 20.6151L85.3998 92Z" fill="#0051FF" fill-opacity="0.6"/>
<path d="M16.229 88.9316L24.1874 26.4361L69.9915 21.5264L78.486 88.2311L16.229 88.9316Z" fill="#0051FF" fill-opacity="0.6"/>
<path d="M61.353 14.1611H56.9023C56.9023 8.80543 52.5437 4.44892 47.185 4.44892C41.8273 4.44892 37.4678 8.80543 37.4678 14.1611H33.0171C33.0171 6.35308 39.373 0.000199318 47.185 0.000199318C54.9971 0.000199318 61.353 6.35308 61.353 14.1611Z" fill="#5982DA"/>
</g>
<defs>
<filter id="filter0_d_8_4768" x="0" y="0" width="89.3999" height="100" filterUnits="userSpaceOnUse" color-interpolation-filters="sRGB">
<feFlood flood-opacity="0" result="BackgroundImageFix"/>
<feColorMatrix in="SourceAlpha" type="matrix" values="0 0 0 0 0 0 0 0 0 0 0 0 0 0 0 0 0 0 127 0" result="hardAlpha"/>
<feOffset dy="4"/>
<feGaussianBlur stdDeviation="2"/>
<feComposite in2="hardAlpha" operator="out"/>
<feColorMatrix type="matrix" values="0 0 0 0 0 0 0 0 0 0 0 0 0 0 0 0 0 0 0.25 0"/>
<feBlend mode="normal" in2="BackgroundImageFix" result="effect1_dropShadow_8_4768"/>
<feBlend mode="normal" in="SourceGraphic" in2="effect1_dropShadow_8_4768" result="shape"/>
</filter>
</defs>
</svg>
